<mxfile host="Electron" agent="Mozilla/5.0 (Windows NT 10.0; Win64; x64) AppleWebKit/537.36 (KHTML, like Gecko) draw.io/24.7.17 Chrome/128.0.6613.36 Electron/32.0.1 Safari/537.36" version="24.7.17">
  <diagram name="Page-1" id="VBeCFcQCi9T_GHILuMJh">
    <mxGraphModel dx="2600" dy="637" grid="0" gridSize="10" guides="1" tooltips="1" connect="1" arrows="1" fold="1" page="0" pageScale="1" pageWidth="827" pageHeight="1169" math="0" shadow="0">
      <root>
        <mxCell id="0" />
        <mxCell id="1" parent="0" />
        <mxCell id="9-xj0HzH26JdvxWl1_oL-4" value="" style="edgeStyle=orthogonalEdgeStyle;rounded=0;orthogonalLoop=1;jettySize=auto;html=1;strokeWidth=1;" parent="1" source="9-xj0HzH26JdvxWl1_oL-2" edge="1">
          <mxGeometry relative="1" as="geometry">
            <mxPoint x="600" y="140" as="targetPoint" />
          </mxGeometry>
        </mxCell>
        <mxCell id="9-xj0HzH26JdvxWl1_oL-2" value="Start" style="strokeWidth=1;html=1;shape=mxgraph.flowchart.terminator;whiteSpace=wrap;" parent="1" vertex="1">
          <mxGeometry x="550" y="30" width="100" height="60" as="geometry" />
        </mxCell>
        <mxCell id="9-xj0HzH26JdvxWl1_oL-8" value="" style="edgeStyle=orthogonalEdgeStyle;rounded=0;orthogonalLoop=1;jettySize=auto;html=1;strokeWidth=1;" parent="1" source="9-xj0HzH26JdvxWl1_oL-3" target="9-xj0HzH26JdvxWl1_oL-7" edge="1">
          <mxGeometry relative="1" as="geometry" />
        </mxCell>
        <mxCell id="9-xj0HzH26JdvxWl1_oL-3" value="Username = Fathir" style="whiteSpace=wrap;html=1;strokeWidth=1;" parent="1" vertex="1">
          <mxGeometry x="540" y="137" width="120" height="60" as="geometry" />
        </mxCell>
        <mxCell id="9-xj0HzH26JdvxWl1_oL-10" value="" style="edgeStyle=orthogonalEdgeStyle;rounded=0;orthogonalLoop=1;jettySize=auto;html=1;strokeWidth=1;" parent="1" source="9-xj0HzH26JdvxWl1_oL-7" target="9-xj0HzH26JdvxWl1_oL-9" edge="1">
          <mxGeometry relative="1" as="geometry" />
        </mxCell>
        <mxCell id="9-xj0HzH26JdvxWl1_oL-7" value="Password = Astral" style="whiteSpace=wrap;html=1;strokeWidth=1;" parent="1" vertex="1">
          <mxGeometry x="540" y="212" width="120" height="60" as="geometry" />
        </mxCell>
        <mxCell id="9-xj0HzH26JdvxWl1_oL-12" value="" style="edgeStyle=orthogonalEdgeStyle;rounded=0;orthogonalLoop=1;jettySize=auto;html=1;" parent="1" source="9-xj0HzH26JdvxWl1_oL-9" target="9-xj0HzH26JdvxWl1_oL-11" edge="1">
          <mxGeometry relative="1" as="geometry" />
        </mxCell>
        <mxCell id="9-xj0HzH26JdvxWl1_oL-9" value="While salah &amp;lt; 3" style="shape=hexagon;perimeter=hexagonPerimeter2;whiteSpace=wrap;html=1;fixedSize=1;strokeWidth=2;" parent="1" vertex="1">
          <mxGeometry x="540" y="309" width="120" height="80" as="geometry" />
        </mxCell>
        <mxCell id="9-xj0HzH26JdvxWl1_oL-14" value="" style="edgeStyle=orthogonalEdgeStyle;rounded=0;orthogonalLoop=1;jettySize=auto;html=1;" parent="1" source="9-xj0HzH26JdvxWl1_oL-11" target="9-xj0HzH26JdvxWl1_oL-13" edge="1">
          <mxGeometry relative="1" as="geometry" />
        </mxCell>
        <mxCell id="9-xj0HzH26JdvxWl1_oL-11" value="Input Masukkan Usename" style="shape=parallelogram;perimeter=parallelogramPerimeter;whiteSpace=wrap;html=1;fixedSize=1;strokeWidth=2;" parent="1" vertex="1">
          <mxGeometry x="540" y="462" width="120" height="60" as="geometry" />
        </mxCell>
        <mxCell id="9-xj0HzH26JdvxWl1_oL-16" value="" style="edgeStyle=orthogonalEdgeStyle;rounded=0;orthogonalLoop=1;jettySize=auto;html=1;" parent="1" source="9-xj0HzH26JdvxWl1_oL-13" target="9-xj0HzH26JdvxWl1_oL-15" edge="1">
          <mxGeometry relative="1" as="geometry" />
        </mxCell>
        <mxCell id="9-xj0HzH26JdvxWl1_oL-13" value="Input Masukkan Password" style="shape=parallelogram;perimeter=parallelogramPerimeter;whiteSpace=wrap;html=1;fixedSize=1;strokeWidth=2;" parent="1" vertex="1">
          <mxGeometry x="540" y="568" width="120" height="60" as="geometry" />
        </mxCell>
        <mxCell id="4jNs-bCMroPG4ZCpSTtw-2" value="" style="edgeStyle=orthogonalEdgeStyle;rounded=0;orthogonalLoop=1;jettySize=auto;html=1;" parent="1" source="9-xj0HzH26JdvxWl1_oL-15" target="4jNs-bCMroPG4ZCpSTtw-1" edge="1">
          <mxGeometry relative="1" as="geometry" />
        </mxCell>
        <mxCell id="4jNs-bCMroPG4ZCpSTtw-15" value="" style="edgeStyle=orthogonalEdgeStyle;rounded=0;orthogonalLoop=1;jettySize=auto;html=1;entryX=0.5;entryY=0;entryDx=0;entryDy=0;entryPerimeter=0;" parent="1" source="9-xj0HzH26JdvxWl1_oL-15" target="4jNs-bCMroPG4ZCpSTtw-16" edge="1">
          <mxGeometry relative="1" as="geometry">
            <mxPoint x="600" y="1599" as="targetPoint" />
          </mxGeometry>
        </mxCell>
        <mxCell id="4jNs-bCMroPG4ZCpSTtw-18" value="" style="edgeStyle=orthogonalEdgeStyle;rounded=0;orthogonalLoop=1;jettySize=auto;html=1;" parent="1" source="9-xj0HzH26JdvxWl1_oL-15" target="4jNs-bCMroPG4ZCpSTtw-17" edge="1">
          <mxGeometry relative="1" as="geometry" />
        </mxCell>
        <mxCell id="9-xj0HzH26JdvxWl1_oL-15" value="Username == Fathir &amp;amp; Password == Astral" style="rhombus;whiteSpace=wrap;html=1;strokeWidth=2;" parent="1" vertex="1">
          <mxGeometry x="521.5" y="696" width="157" height="169" as="geometry" />
        </mxCell>
        <mxCell id="4jNs-bCMroPG4ZCpSTtw-7" value="" style="edgeStyle=orthogonalEdgeStyle;rounded=0;orthogonalLoop=1;jettySize=auto;html=1;" parent="1" source="4jNs-bCMroPG4ZCpSTtw-1" target="4jNs-bCMroPG4ZCpSTtw-6" edge="1">
          <mxGeometry relative="1" as="geometry" />
        </mxCell>
        <mxCell id="4jNs-bCMroPG4ZCpSTtw-1" value="Output &quot;Anda gagal login sebanyak (gagal)&quot;" style="shape=parallelogram;perimeter=parallelogramPerimeter;whiteSpace=wrap;html=1;fixedSize=1;strokeWidth=2;" parent="1" vertex="1">
          <mxGeometry x="778" y="739.25" width="178" height="82.5" as="geometry" />
        </mxCell>
        <mxCell id="4jNs-bCMroPG4ZCpSTtw-3" value="" style="html=1;shadow=0;dashed=0;align=center;verticalAlign=middle;shape=mxgraph.arrows2.arrow;dy=0.6;dx=40;notch=0;" parent="1" vertex="1">
          <mxGeometry x="470" y="465" width="80" height="18" as="geometry" />
        </mxCell>
        <mxCell id="4jNs-bCMroPG4ZCpSTtw-4" value="" style="html=1;shadow=0;dashed=0;align=center;verticalAlign=middle;shape=mxgraph.arrows2.arrow;dy=0.6;dx=40;notch=0;" parent="1" vertex="1">
          <mxGeometry x="470" y="576" width="80" height="18" as="geometry" />
        </mxCell>
        <mxCell id="4jNs-bCMroPG4ZCpSTtw-5" value="" style="html=1;shadow=0;dashed=0;align=center;verticalAlign=middle;shape=mxgraph.arrows2.arrow;dy=0.6;dx=40;notch=0;" parent="1" vertex="1">
          <mxGeometry x="939" y="798" width="80" height="18" as="geometry" />
        </mxCell>
        <mxCell id="4jNs-bCMroPG4ZCpSTtw-9" value="" style="edgeStyle=orthogonalEdgeStyle;rounded=0;orthogonalLoop=1;jettySize=auto;html=1;entryX=1;entryY=0.5;entryDx=0;entryDy=0;" parent="1" source="4jNs-bCMroPG4ZCpSTtw-6" target="9-xj0HzH26JdvxWl1_oL-9" edge="1">
          <mxGeometry relative="1" as="geometry">
            <mxPoint x="683" y="346" as="targetPoint" />
            <Array as="points">
              <mxPoint x="867" y="349" />
            </Array>
          </mxGeometry>
        </mxCell>
        <mxCell id="4jNs-bCMroPG4ZCpSTtw-6" value="gagal +=1" style="whiteSpace=wrap;html=1;strokeWidth=2;" parent="1" vertex="1">
          <mxGeometry x="807" y="614" width="120" height="34" as="geometry" />
        </mxCell>
        <mxCell id="4jNs-bCMroPG4ZCpSTtw-10" value="False" style="text;html=1;align=center;verticalAlign=middle;whiteSpace=wrap;rounded=0;" parent="1" vertex="1">
          <mxGeometry x="678.5" y="752" width="60" height="30" as="geometry" />
        </mxCell>
        <mxCell id="4jNs-bCMroPG4ZCpSTtw-16" value="End" style="strokeWidth=2;html=1;shape=mxgraph.flowchart.start_1;whiteSpace=wrap;" parent="1" vertex="1">
          <mxGeometry x="550" y="1754" width="100" height="60" as="geometry" />
        </mxCell>
        <mxCell id="4jNs-bCMroPG4ZCpSTtw-20" value="" style="edgeStyle=orthogonalEdgeStyle;rounded=0;orthogonalLoop=1;jettySize=auto;html=1;" parent="1" source="4jNs-bCMroPG4ZCpSTtw-17" target="4jNs-bCMroPG4ZCpSTtw-19" edge="1">
          <mxGeometry relative="1" as="geometry" />
        </mxCell>
        <mxCell id="4jNs-bCMroPG4ZCpSTtw-17" value="Login telah berhasil" style="whiteSpace=wrap;html=1;strokeWidth=2;" parent="1" vertex="1">
          <mxGeometry x="345" y="750.5" width="120" height="60" as="geometry" />
        </mxCell>
        <mxCell id="4jNs-bCMroPG4ZCpSTtw-22" value="" style="edgeStyle=orthogonalEdgeStyle;rounded=0;orthogonalLoop=1;jettySize=auto;html=1;" parent="1" source="4jNs-bCMroPG4ZCpSTtw-19" target="4jNs-bCMroPG4ZCpSTtw-21" edge="1">
          <mxGeometry relative="1" as="geometry" />
        </mxCell>
        <mxCell id="4jNs-bCMroPG4ZCpSTtw-19" value="While True" style="shape=hexagon;perimeter=hexagonPerimeter2;whiteSpace=wrap;html=1;fixedSize=1;strokeWidth=2;" parent="1" vertex="1">
          <mxGeometry x="345" y="1012.5" width="120" height="80" as="geometry" />
        </mxCell>
        <mxCell id="4jNs-bCMroPG4ZCpSTtw-24" value="" style="edgeStyle=orthogonalEdgeStyle;rounded=0;orthogonalLoop=1;jettySize=auto;html=1;" parent="1" source="4jNs-bCMroPG4ZCpSTtw-21" target="4jNs-bCMroPG4ZCpSTtw-23" edge="1">
          <mxGeometry relative="1" as="geometry" />
        </mxCell>
        <mxCell id="4jNs-bCMroPG4ZCpSTtw-21" value="&lt;font style=&quot;font-size: 16px;&quot;&gt;Selamat Datang Nameless&lt;br&gt;&lt;br&gt;&lt;/font&gt;&lt;div style=&quot;line-height: 120%; font-size: 16px;&quot;&gt;&lt;font style=&quot;font-size: 16px;&quot;&gt;1. Lihat Patch&lt;br&gt;2. Tambah Patch&lt;br&gt;3. Edit Patch&lt;br&gt;4. Hapus Patch&lt;br&gt;5. Log Out&lt;br&gt;&lt;br&gt;Silahkan Dipilih Nameless&lt;/font&gt;&lt;/div&gt;" style="whiteSpace=wrap;html=1;strokeWidth=2;" parent="1" vertex="1">
          <mxGeometry x="21" y="938" width="282" height="229" as="geometry" />
        </mxCell>
        <mxCell id="o5zF2iJZm5YbJoPvvIbO-5" style="edgeStyle=orthogonalEdgeStyle;rounded=0;orthogonalLoop=1;jettySize=auto;html=1;" edge="1" parent="1" source="4jNs-bCMroPG4ZCpSTtw-23" target="4jNs-bCMroPG4ZCpSTtw-27">
          <mxGeometry relative="1" as="geometry" />
        </mxCell>
        <mxCell id="4jNs-bCMroPG4ZCpSTtw-23" value="Pilih Menu" style="whiteSpace=wrap;html=1;strokeWidth=2;" parent="1" vertex="1">
          <mxGeometry x="-145" y="1022.75" width="120" height="59.5" as="geometry" />
        </mxCell>
        <mxCell id="4jNs-bCMroPG4ZCpSTtw-45" value="" style="edgeStyle=orthogonalEdgeStyle;rounded=0;orthogonalLoop=1;jettySize=auto;html=1;" parent="1" source="4jNs-bCMroPG4ZCpSTtw-25" target="4jNs-bCMroPG4ZCpSTtw-44" edge="1">
          <mxGeometry relative="1" as="geometry" />
        </mxCell>
        <mxCell id="o5zF2iJZm5YbJoPvvIbO-13" style="edgeStyle=orthogonalEdgeStyle;rounded=0;orthogonalLoop=1;jettySize=auto;html=1;" edge="1" parent="1" source="4jNs-bCMroPG4ZCpSTtw-25" target="4jNs-bCMroPG4ZCpSTtw-55">
          <mxGeometry relative="1" as="geometry" />
        </mxCell>
        <mxCell id="4jNs-bCMroPG4ZCpSTtw-25" value="4. Hapus Patch" style="rhombus;whiteSpace=wrap;html=1;strokeWidth=2;" parent="1" vertex="1">
          <mxGeometry x="-445" y="1362" width="121" height="122" as="geometry" />
        </mxCell>
        <mxCell id="4jNs-bCMroPG4ZCpSTtw-36" value="" style="edgeStyle=orthogonalEdgeStyle;rounded=0;orthogonalLoop=1;jettySize=auto;html=1;" parent="1" source="4jNs-bCMroPG4ZCpSTtw-27" target="4jNs-bCMroPG4ZCpSTtw-35" edge="1">
          <mxGeometry relative="1" as="geometry" />
        </mxCell>
        <mxCell id="o5zF2iJZm5YbJoPvvIbO-3" style="edgeStyle=orthogonalEdgeStyle;rounded=0;orthogonalLoop=1;jettySize=auto;html=1;entryX=0.5;entryY=0;entryDx=0;entryDy=0;" edge="1" parent="1" source="4jNs-bCMroPG4ZCpSTtw-27" target="4jNs-bCMroPG4ZCpSTtw-29">
          <mxGeometry relative="1" as="geometry" />
        </mxCell>
        <mxCell id="4jNs-bCMroPG4ZCpSTtw-27" value="1. Lihat Patch" style="rhombus;whiteSpace=wrap;html=1;strokeWidth=2;" parent="1" vertex="1">
          <mxGeometry x="-138" y="739.25" width="106" height="108" as="geometry" />
        </mxCell>
        <mxCell id="4jNs-bCMroPG4ZCpSTtw-39" value="" style="edgeStyle=orthogonalEdgeStyle;rounded=0;orthogonalLoop=1;jettySize=auto;html=1;" parent="1" source="4jNs-bCMroPG4ZCpSTtw-29" target="4jNs-bCMroPG4ZCpSTtw-38" edge="1">
          <mxGeometry relative="1" as="geometry" />
        </mxCell>
        <mxCell id="4jNs-bCMroPG4ZCpSTtw-29" value="2. Tambah Patch" style="rhombus;whiteSpace=wrap;html=1;strokeWidth=2;" parent="1" vertex="1">
          <mxGeometry x="-327" y="997.75" width="107" height="112.5" as="geometry" />
        </mxCell>
        <mxCell id="4jNs-bCMroPG4ZCpSTtw-41" value="" style="edgeStyle=orthogonalEdgeStyle;rounded=0;orthogonalLoop=1;jettySize=auto;html=1;" parent="1" source="4jNs-bCMroPG4ZCpSTtw-31" target="4jNs-bCMroPG4ZCpSTtw-40" edge="1">
          <mxGeometry relative="1" as="geometry" />
        </mxCell>
        <mxCell id="o5zF2iJZm5YbJoPvvIbO-10" style="edgeStyle=orthogonalEdgeStyle;rounded=0;orthogonalLoop=1;jettySize=auto;html=1;entryX=0.5;entryY=0;entryDx=0;entryDy=0;" edge="1" parent="1" source="4jNs-bCMroPG4ZCpSTtw-31" target="4jNs-bCMroPG4ZCpSTtw-25">
          <mxGeometry relative="1" as="geometry" />
        </mxCell>
        <mxCell id="4jNs-bCMroPG4ZCpSTtw-31" value="3. Edit Patch" style="rhombus;whiteSpace=wrap;html=1;strokeWidth=2;" parent="1" vertex="1">
          <mxGeometry x="-442" y="1146" width="115" height="110" as="geometry" />
        </mxCell>
        <mxCell id="4jNs-bCMroPG4ZCpSTtw-50" style="edgeStyle=orthogonalEdgeStyle;rounded=0;orthogonalLoop=1;jettySize=auto;html=1;entryX=0.5;entryY=0;entryDx=0;entryDy=0;" parent="1" source="4jNs-bCMroPG4ZCpSTtw-35" target="4jNs-bCMroPG4ZCpSTtw-46" edge="1">
          <mxGeometry relative="1" as="geometry" />
        </mxCell>
        <mxCell id="4jNs-bCMroPG4ZCpSTtw-35" value="Tampilkan List Patch" style="whiteSpace=wrap;html=1;strokeWidth=2;" parent="1" vertex="1">
          <mxGeometry x="-145" y="628" width="120" height="60" as="geometry" />
        </mxCell>
        <mxCell id="4jNs-bCMroPG4ZCpSTtw-49" style="edgeStyle=orthogonalEdgeStyle;rounded=0;orthogonalLoop=1;jettySize=auto;html=1;entryX=1;entryY=0.5;entryDx=0;entryDy=0;" parent="1" source="4jNs-bCMroPG4ZCpSTtw-38" target="4jNs-bCMroPG4ZCpSTtw-46" edge="1">
          <mxGeometry relative="1" as="geometry" />
        </mxCell>
        <mxCell id="4jNs-bCMroPG4ZCpSTtw-38" value="Masukkan Patch baru dan Char baru" style="whiteSpace=wrap;html=1;strokeWidth=2;" parent="1" vertex="1">
          <mxGeometry x="-620" y="1005" width="120" height="98" as="geometry" />
        </mxCell>
        <mxCell id="4jNs-bCMroPG4ZCpSTtw-43" value="" style="edgeStyle=orthogonalEdgeStyle;rounded=0;orthogonalLoop=1;jettySize=auto;html=1;" parent="1" source="4jNs-bCMroPG4ZCpSTtw-40" target="4jNs-bCMroPG4ZCpSTtw-42" edge="1">
          <mxGeometry relative="1" as="geometry" />
        </mxCell>
        <mxCell id="4jNs-bCMroPG4ZCpSTtw-40" value="Pilih Patch yang ingin di edit" style="whiteSpace=wrap;html=1;strokeWidth=2;" parent="1" vertex="1">
          <mxGeometry x="-614" y="1171" width="120" height="60" as="geometry" />
        </mxCell>
        <mxCell id="4jNs-bCMroPG4ZCpSTtw-48" value="" style="edgeStyle=orthogonalEdgeStyle;rounded=0;orthogonalLoop=1;jettySize=auto;html=1;" parent="1" source="4jNs-bCMroPG4ZCpSTtw-42" target="4jNs-bCMroPG4ZCpSTtw-46" edge="1">
          <mxGeometry relative="1" as="geometry">
            <Array as="points">
              <mxPoint x="-960" y="1201" />
            </Array>
          </mxGeometry>
        </mxCell>
        <mxCell id="4jNs-bCMroPG4ZCpSTtw-42" value="Masukkan Patch dan Char" style="whiteSpace=wrap;html=1;strokeWidth=2;" parent="1" vertex="1">
          <mxGeometry x="-764" y="1171" width="120" height="60" as="geometry" />
        </mxCell>
        <mxCell id="4jNs-bCMroPG4ZCpSTtw-47" value="" style="edgeStyle=orthogonalEdgeStyle;rounded=0;orthogonalLoop=1;jettySize=auto;html=1;" parent="1" source="4jNs-bCMroPG4ZCpSTtw-44" target="4jNs-bCMroPG4ZCpSTtw-46" edge="1">
          <mxGeometry relative="1" as="geometry" />
        </mxCell>
        <mxCell id="4jNs-bCMroPG4ZCpSTtw-44" value="Pilih Patch yang ingin di hapus" style="whiteSpace=wrap;html=1;strokeWidth=2;" parent="1" vertex="1">
          <mxGeometry x="-648" y="1393" width="120" height="60" as="geometry" />
        </mxCell>
        <mxCell id="4jNs-bCMroPG4ZCpSTtw-51" style="rounded=0;orthogonalLoop=1;jettySize=auto;html=1;edgeStyle=orthogonalEdgeStyle;entryX=0.5;entryY=0;entryDx=0;entryDy=0;" parent="1" source="4jNs-bCMroPG4ZCpSTtw-46" target="4jNs-bCMroPG4ZCpSTtw-21" edge="1">
          <mxGeometry relative="1" as="geometry">
            <mxPoint x="67" y="937" as="targetPoint" />
            <Array as="points">
              <mxPoint x="-1287" y="1054" />
              <mxPoint x="-1287" y="563" />
              <mxPoint x="162" y="563" />
            </Array>
          </mxGeometry>
        </mxCell>
        <mxCell id="4jNs-bCMroPG4ZCpSTtw-46" value="&lt;font style=&quot;font-size: 16px;&quot;&gt;Jika Sudah selesai silahkan kembali ke menu utama&lt;/font&gt;" style="whiteSpace=wrap;html=1;strokeWidth=2;" parent="1" vertex="1">
          <mxGeometry x="-1066" y="965.5" width="214" height="177" as="geometry" />
        </mxCell>
        <mxCell id="4jNs-bCMroPG4ZCpSTtw-58" value="" style="edgeStyle=orthogonalEdgeStyle;rounded=0;orthogonalLoop=1;jettySize=auto;html=1;" parent="1" source="4jNs-bCMroPG4ZCpSTtw-55" target="4jNs-bCMroPG4ZCpSTtw-57" edge="1">
          <mxGeometry relative="1" as="geometry" />
        </mxCell>
        <mxCell id="o5zF2iJZm5YbJoPvvIbO-15" style="edgeStyle=orthogonalEdgeStyle;rounded=0;orthogonalLoop=1;jettySize=auto;html=1;entryX=0.5;entryY=1;entryDx=0;entryDy=0;" edge="1" parent="1" source="o5zF2iJZm5YbJoPvvIbO-19" target="4jNs-bCMroPG4ZCpSTtw-21">
          <mxGeometry relative="1" as="geometry" />
        </mxCell>
        <mxCell id="4jNs-bCMroPG4ZCpSTtw-55" value="5. Log Out" style="rhombus;whiteSpace=wrap;html=1;strokeWidth=2;" parent="1" vertex="1">
          <mxGeometry x="81.5" y="1347" width="161" height="152" as="geometry" />
        </mxCell>
        <mxCell id="4jNs-bCMroPG4ZCpSTtw-60" value="" style="edgeStyle=orthogonalEdgeStyle;rounded=0;orthogonalLoop=1;jettySize=auto;html=1;" parent="1" source="4jNs-bCMroPG4ZCpSTtw-57" target="4jNs-bCMroPG4ZCpSTtw-59" edge="1">
          <mxGeometry relative="1" as="geometry" />
        </mxCell>
        <mxCell id="4jNs-bCMroPG4ZCpSTtw-57" value="Pengguna Log Out" style="whiteSpace=wrap;html=1;strokeWidth=2;" parent="1" vertex="1">
          <mxGeometry x="102" y="1598" width="120" height="60" as="geometry" />
        </mxCell>
        <mxCell id="4jNs-bCMroPG4ZCpSTtw-61" style="edgeStyle=orthogonalEdgeStyle;rounded=0;orthogonalLoop=1;jettySize=auto;html=1;" parent="1" source="4jNs-bCMroPG4ZCpSTtw-59" target="4jNs-bCMroPG4ZCpSTtw-16" edge="1">
          <mxGeometry relative="1" as="geometry" />
        </mxCell>
        <mxCell id="4jNs-bCMroPG4ZCpSTtw-59" value="&amp;nbsp;Output &quot; Anda telah Log Out&quot;" style="shape=parallelogram;perimeter=parallelogramPerimeter;whiteSpace=wrap;html=1;fixedSize=1;strokeWidth=2;" parent="1" vertex="1">
          <mxGeometry x="86.5" y="1739.5" width="151" height="89" as="geometry" />
        </mxCell>
        <mxCell id="4jNs-bCMroPG4ZCpSTtw-62" value="" style="html=1;shadow=0;dashed=0;align=center;verticalAlign=middle;shape=mxgraph.arrows2.arrow;dy=0.6;dx=40;notch=0;" parent="1" vertex="1">
          <mxGeometry x="223" y="1799" width="80" height="18" as="geometry" />
        </mxCell>
        <mxCell id="4jNs-bCMroPG4ZCpSTtw-63" value="True" style="text;html=1;align=center;verticalAlign=middle;whiteSpace=wrap;rounded=0;" parent="1" vertex="1">
          <mxGeometry x="473" y="752" width="60" height="30" as="geometry" />
        </mxCell>
        <mxCell id="o5zF2iJZm5YbJoPvvIbO-2" value="True" style="text;html=1;align=center;verticalAlign=middle;resizable=0;points=[];autosize=1;strokeColor=none;fillColor=none;" vertex="1" parent="1">
          <mxGeometry x="-81" y="708" width="42" height="26" as="geometry" />
        </mxCell>
        <mxCell id="o5zF2iJZm5YbJoPvvIbO-4" value="False" style="text;html=1;align=center;verticalAlign=middle;resizable=0;points=[];autosize=1;strokeColor=none;fillColor=none;" vertex="1" parent="1">
          <mxGeometry x="-189" y="767.5" width="47" height="26" as="geometry" />
        </mxCell>
        <mxCell id="o5zF2iJZm5YbJoPvvIbO-6" value="True" style="text;html=1;align=center;verticalAlign=middle;resizable=0;points=[];autosize=1;strokeColor=none;fillColor=none;" vertex="1" parent="1">
          <mxGeometry x="-366" y="1022.75" width="42" height="26" as="geometry" />
        </mxCell>
        <mxCell id="o5zF2iJZm5YbJoPvvIbO-7" style="edgeStyle=orthogonalEdgeStyle;rounded=0;orthogonalLoop=1;jettySize=auto;html=1;entryX=1;entryY=0.5;entryDx=0;entryDy=0;" edge="1" parent="1" source="4jNs-bCMroPG4ZCpSTtw-29" target="4jNs-bCMroPG4ZCpSTtw-31">
          <mxGeometry relative="1" as="geometry">
            <mxPoint x="-284" y="1192" as="targetPoint" />
            <Array as="points">
              <mxPoint x="-274" y="1201" />
            </Array>
          </mxGeometry>
        </mxCell>
        <mxCell id="o5zF2iJZm5YbJoPvvIbO-8" value="False" style="text;html=1;align=center;verticalAlign=middle;resizable=0;points=[];autosize=1;strokeColor=none;fillColor=none;" vertex="1" parent="1">
          <mxGeometry x="-270" y="1110.25" width="47" height="26" as="geometry" />
        </mxCell>
        <mxCell id="o5zF2iJZm5YbJoPvvIbO-9" value="True" style="text;html=1;align=center;verticalAlign=middle;resizable=0;points=[];autosize=1;strokeColor=none;fillColor=none;" vertex="1" parent="1">
          <mxGeometry x="-482" y="1177" width="42" height="26" as="geometry" />
        </mxCell>
        <mxCell id="o5zF2iJZm5YbJoPvvIbO-11" value="False" style="text;html=1;align=center;verticalAlign=middle;resizable=0;points=[];autosize=1;strokeColor=none;fillColor=none;" vertex="1" parent="1">
          <mxGeometry x="-374" y="1264" width="47" height="26" as="geometry" />
        </mxCell>
        <mxCell id="o5zF2iJZm5YbJoPvvIbO-12" value="&lt;div&gt;True&lt;/div&gt;" style="text;html=1;align=center;verticalAlign=middle;resizable=0;points=[];autosize=1;strokeColor=none;fillColor=none;" vertex="1" parent="1">
          <mxGeometry x="-497" y="1401" width="42" height="26" as="geometry" />
        </mxCell>
        <mxCell id="o5zF2iJZm5YbJoPvvIbO-14" value="False" style="text;html=1;align=center;verticalAlign=middle;resizable=0;points=[];autosize=1;strokeColor=none;fillColor=none;" vertex="1" parent="1">
          <mxGeometry x="-322" y="1398" width="47" height="26" as="geometry" />
        </mxCell>
        <mxCell id="o5zF2iJZm5YbJoPvvIbO-16" value="False" style="text;html=1;align=center;verticalAlign=middle;resizable=0;points=[];autosize=1;strokeColor=none;fillColor=none;" vertex="1" parent="1">
          <mxGeometry x="164" y="1321" width="47" height="26" as="geometry" />
        </mxCell>
        <mxCell id="o5zF2iJZm5YbJoPvvIbO-17" value="True" style="text;html=1;align=center;verticalAlign=middle;resizable=0;points=[];autosize=1;strokeColor=none;fillColor=none;" vertex="1" parent="1">
          <mxGeometry x="169" y="1499" width="42" height="26" as="geometry" />
        </mxCell>
        <mxCell id="o5zF2iJZm5YbJoPvvIbO-20" value="" style="edgeStyle=orthogonalEdgeStyle;rounded=0;orthogonalLoop=1;jettySize=auto;html=1;entryX=0.5;entryY=1;entryDx=0;entryDy=0;" edge="1" parent="1" source="4jNs-bCMroPG4ZCpSTtw-55" target="o5zF2iJZm5YbJoPvvIbO-19">
          <mxGeometry relative="1" as="geometry">
            <mxPoint x="162" y="1347" as="sourcePoint" />
            <mxPoint x="162" y="1167" as="targetPoint" />
          </mxGeometry>
        </mxCell>
        <mxCell id="o5zF2iJZm5YbJoPvvIbO-19" value="Output &quot;Maaf pilihan itu tidak ada Nameless" style="shape=parallelogram;perimeter=parallelogramPerimeter;whiteSpace=wrap;html=1;fixedSize=1;" vertex="1" parent="1">
          <mxGeometry x="85" y="1213" width="154" height="89" as="geometry" />
        </mxCell>
        <mxCell id="o5zF2iJZm5YbJoPvvIbO-21" value="" style="html=1;shadow=0;dashed=0;align=center;verticalAlign=middle;shape=mxgraph.arrows2.arrow;dy=0.6;dx=40;notch=0;" vertex="1" parent="1">
          <mxGeometry x="219" y="1286" width="80" height="18" as="geometry" />
        </mxCell>
      </root>
    </mxGraphModel>
  </diagram>
</mxfile>
